<?xml version="1.0" encoding="iso-8859-1"?>
<!DOCTYPE svg PUBLIC "-//W3C//DTD SVG 1.1//EN" "http://www.w3.org/Graphics/SVG/1.1/DTD/svg11.dtd">
<svg version="1.1" xmlns="http://www.w3.org/2000/svg" xmlns:xlink="http://www.w3.org/1999/xlink" x="0px" y="0px"
	 width="100%" height="100%" viewBox="0 0 512 512" style="enable-background:new 0 0 512 512;" xml:space="preserve">
<g>
	<path d="M426,0H86C38.7,0,0,38.7,0,86v340c0,47.3,38.7,86,86,86h340c47.301,0,86-38.7,86-86V86C512,38.7,473.301,0,426,0z
		 M373.258,380.443c-88.779,0-119.569-40.027-135.986-89.801l-16.425-51.318c-12.319-37.463-26.687-66.712-71.842-66.712
		c-31.31,0-63.123,22.579-63.123,85.699c0,49.266,25.144,80.058,60.557,80.058c40.021,0,66.71-29.767,66.71-29.767l16.425,44.646
		c0,0-27.718,27.196-85.699,27.196C72.029,380.443,32,338.367,32,260.361c0-81.083,40.029-128.805,115.464-128.805
		c68.253,0,102.64,24.632,124.188,91.346l16.936,51.313c12.318,37.465,33.867,64.662,85.697,64.662
		c34.896,0,53.367-7.699,53.367-26.684c0-14.885-8.721-25.66-34.893-31.82l-34.898-8.207
		c-42.588-10.262-59.521-32.329-59.521-67.226c0-55.936,45.158-73.384,91.342-73.384c52.346,0,84.162,18.988,88.268,65.172
		l-51.316,6.16c-2.055-22.066-15.396-31.305-40.027-31.305c-22.582,0-36.436,10.265-36.436,27.713
		c0,15.395,6.67,24.633,29.246,29.765l32.842,7.182c44.135,10.266,67.746,31.819,67.746,73.386
		C480.002,360.945,436.895,380.443,373.258,380.443z"/>
</g>
</svg>
